<?xml version="1.0" encoding="UTF-8"?>
<svg version="1.1" xmlns="http://www.w3.org/2000/svg" width="400" height="400">
<path d="M0 0 C132 0 264 0 400 0 C400 132 400 264 400 400 C268 400 136 400 0 400 C0 268 0 136 0 0 Z " fill="#B83B01" transform="translate(0,0)"/>
<path d="M0 0 C132 0 264 0 400 0 C400 132 400 264 400 400 C268 400 136 400 0 400 C0 268 0 136 0 0 Z M166 39 C165.26749023 39.16628906 164.53498047 39.33257812 163.78027344 39.50390625 C151.6312568 42.3427072 140.33562089 46.84651457 129 52 C128.36610352 52.28069336 127.73220703 52.56138672 127.07910156 52.85058594 C112.40310511 59.39193297 99.63317736 69.00835815 88 80 C86.64991542 81.15064027 85.29588411 82.2966696 83.9375 83.4375 C55.9686347 108.06347303 37.86149547 146.16968896 34 183 C33.6908747 188.33664743 33.66969954 193.67563868 33.68432617 199.01977539 C33.68749141 201.43095986 33.66391189 203.84091863 33.63867188 206.25195312 C33.59987821 215.93760356 34.52968238 224.59110014 37 234 C37.22284668 234.93859863 37.44569336 235.87719727 37.67529297 236.84423828 C43.9463077 263.09512152 58.09448372 288.04663875 76 308 C76.79664063 308.9178125 77.59328125 309.835625 78.4140625 310.78125 C82.95754968 315.96488486 87.64085928 320.66648794 93 325 C93.93328125 325.75925781 94.8665625 326.51851563 95.828125 327.30078125 C133.17523565 357.13378494 177.21583105 367.6048078 224.45166016 363.71582031 C263.80286376 358.84507236 304.53039008 334.92326013 328.890625 303.76171875 C329.58671875 302.85035156 330.2828125 301.93898438 331 301 C331.73734375 300.07832031 332.4746875 299.15664063 333.234375 298.20703125 C339.43467703 290.2856109 344.36653426 281.8983357 349 273 C349.32242676 272.38253906 349.64485352 271.76507813 349.97705078 271.12890625 C355.27401525 260.81770384 358.75483117 250.10379566 362 239 C362.33128906 237.91074219 362.66257812 236.82148438 363.00390625 235.69921875 C366.32668594 224.35040115 366.24085019 212.80124662 366.25 201.0625 C366.25067474 200.28376526 366.25134949 199.50503052 366.25204468 198.70269775 C366.2358174 186.90470562 365.81754567 175.51144888 363 164 C362.83371094 163.29891113 362.66742188 162.59782227 362.49609375 161.87548828 C352.19291714 119.81372376 323.27818392 82.05332085 287 59 C271.60474844 49.77184202 254.68039565 42.42409611 237 39 C236.36239746 38.86609863 235.72479492 38.73219727 235.06787109 38.59423828 C212.973445 34.0674015 187.98264642 33.85145948 166 39 Z " fill="#FEFEFE" transform="translate(0,0)"/>
<path d="M0 0 C3 1 3 1 4.6875 3.9375 C6.93700728 9.77664655 7.12795957 16.1486646 4.625 21.9375 C1.94110868 26.71210375 -1.98357878 30.56454769 -5.7578125 34.484375 C-9.76567971 38.9810065 -10.56260801 42.40780343 -10.44921875 48.34765625 C-9.65219047 53.05358845 -6.86295669 56.29894124 -4 60 C-0.27634093 65.15731592 1.66148057 68.38519425 1 75 C1 75.66 1 76.32 1 77 C2.69506693 75.35629874 4.35357006 73.69182024 6 72 C6.56589844 71.43023437 7.13179688 70.86046875 7.71484375 70.2734375 C13.34572394 64.28523668 18.09799475 57.06351206 18.5625 48.625 C18.27775973 43.53641584 16.53844473 38.79802861 14.875 34.015625 C14.04521806 31.15584081 13.82500981 28.95295951 14 26 C19.54150015 26.92358336 22.57170104 30.80985683 26 35 C31.40651259 43.00711358 33.34300927 50.37940476 32 60 C31.35773267 61.67622042 30.69457978 63.34477157 30 65 C30 65.99 30 66.98 30 68 C30.5576001 68.12528076 31.1152002 68.25056152 31.68969727 68.37963867 C74.01766957 77.96702223 74.01766957 77.96702223 85 92 C87.11049994 95.83727262 87.40628187 99.6930278 88 104 C88.9132605 103.9685791 88.9132605 103.9685791 89.8449707 103.93652344 C115.33825338 103.17445009 115.33825338 103.17445009 125.4375 111.3125 C130.99571762 116.62014223 134.01871981 122.47129863 134.23828125 130.1953125 C134.55214365 144.0587413 132.79152133 153.56772472 123 164 C111.16902114 175.04388672 95.64136222 176.17893153 80.1796875 176.4831543 C75.67074751 176.63700395 72.50087732 177.04445165 69 180 C68.35220268 182.05586839 68.35220268 182.05586839 68 184 C68.53367187 184.27150879 69.06734375 184.54301758 69.6171875 184.82275391 C72.08216649 186.08243067 74.54103586 187.35362447 77 188.625 C77.83917969 189.05167969 78.67835938 189.47835937 79.54296875 189.91796875 C88.51452997 194.57761683 98.20610568 200.11722673 101.765625 210.16015625 C102.80986627 215.64242289 101.47632853 219.80268413 98.74609375 224.58984375 C86.15624229 241.96778189 56.92950082 248.58202888 37 252 C23.37701088 254.026538 9.85467512 254.34189989 -3.90332031 254.31567383 C-7.36295042 254.31251102 -10.82172458 254.3360779 -14.28125 254.36132812 C-27.78735343 254.40007574 -40.73668708 253.59773839 -54 251 C-55.56596924 250.69388794 -55.56596924 250.69388794 -57.16357422 250.3815918 C-59.54458675 249.87156631 -61.89523721 249.30640181 -64.25 248.6875 C-65.065896 248.47730225 -65.88179199 248.26710449 -66.72241211 248.05053711 C-83.07342917 243.69737526 -103.67397053 237.4607912 -112.75 222.0234375 C-114.83435926 216.98189353 -115.14248899 212.02456023 -113.19140625 206.859375 C-106.13453961 194.45491738 -93.4669053 189.44369825 -81 184 C-81.58729255 178.5870024 -82.92192384 173.90497081 -84.8125 168.8125 C-85.35835385 167.29176748 -85.90392616 165.77093387 -86.44921875 164.25 C-87.32875486 161.82501614 -88.22498299 159.41028349 -89.14453125 157 C-94.68797654 141.80521769 -96.38199969 126.07095925 -96.5 110 C-96.51836914 108.70594238 -96.53673828 107.41188477 -96.55566406 106.07861328 C-96.48144759 94.81997421 -96.48144759 94.81997421 -92 90 C-91.47921875 89.39414063 -90.9584375 88.78828125 -90.421875 88.1640625 C-73.63519174 72.71090081 -47.87068658 68.14394388 -25.875 67.5390625 C-22.23565428 68.12254456 -20.59710028 69.43072579 -18 72 C-17.67 72.99 -17.34 73.98 -17 75 C-17.93714844 75.15855469 -18.87429687 75.31710938 -19.83984375 75.48046875 C-23.63496284 76.13055416 -27.42482838 76.80784211 -31.21337891 77.49511719 C-33.14733783 77.84551381 -35.08195979 78.1922628 -37.01708984 78.53613281 C-61.99694945 82.6539022 -61.99694945 82.6539022 -83 96 C-85.4915904 99.7373856 -85.45793285 101.57331583 -85 106 C-80.31863008 114.19239736 -70.06288319 117.82074145 -61.46679688 120.35742188 C-56.17574144 121.73569364 -50.80940321 122.74292871 -45.4375 123.75 C-44.31432373 123.96076172 -43.19114746 124.17152344 -42.03393555 124.38867188 C-8.7085182 130.31405396 39.68634652 131.12500447 69.1875 111.4375 C73.08087696 108.06323997 73.82135267 106.63760056 74.375 101.5625 C73.92002651 97.24025189 72.99414211 96.09936755 70 93 C67.60498214 91.41202235 65.09420414 90.16684872 62.5 88.9375 C61.78513428 88.59243408 61.07026855 88.24736816 60.33374023 87.8918457 C48.37115062 82.22986568 33.48315883 77.04122088 20 78 C16.94935201 79.46249391 14.3006397 81.52073655 11.5625 83.5 C10.82451172 84.0053125 10.08652344 84.510625 9.32617188 85.03125 C1.97760759 90.25689572 -3.13744929 96.05975657 -5 105 C-6.485 104.505 -6.485 104.505 -8 104 C-9.21025742 101.57948516 -9.05809901 100.18679715 -8.95703125 97.4921875 C-8.93576172 96.58726562 -8.91449219 95.68234375 -8.89257812 94.75 C-8.8398348 92.85638616 -8.77503187 90.96306384 -8.69726562 89.0703125 C-8.54563814 81.11829342 -10.3213861 75.80262656 -15.65625 69.875 C-16.59843989 68.91103579 -17.54645633 67.95273462 -18.5 67 C-24.57445575 60.58579165 -28.07059707 56.03477606 -28.625 47.0625 C-28.31174165 39.27019861 -25.0094643 34.9230682 -19.55078125 29.62109375 C-17.06898457 27.36929916 -14.55238254 25.17123817 -12 23 C-4.99112895 16.92564509 -1.81781278 8.92380819 0 0 Z " fill="#FDFBFB" transform="translate(206,62)"/>
<path d="M0 0 C3.40790072 0.67209179 6.02647114 2.02314461 9.0625 3.6875 C24.77342318 11.59034073 41.70477654 14.63492352 59 17 C59.73114014 17.1045752 60.46228027 17.20915039 61.21557617 17.31689453 C93.27933294 21.45200586 133.24702607 18.02887138 161.94921875 1.91796875 C164 1 164 1 168 1 C169.67176486 29.66767152 156.24745721 61.19397007 137.375 82.4375 C135.9256087 83.96685771 134.46800415 85.48849943 133 87 C132.42765625 87.63421875 131.8553125 88.2684375 131.265625 88.921875 C122.08748775 98.7992989 106.98142093 107.19299325 93.37548828 108.19287109 C80.04809919 108.57564206 68.25560604 108.85943209 56 103 C54.96101563 102.50371094 53.92203125 102.00742187 52.8515625 101.49609375 C44.78251909 97.1919125 38.42343997 91.40471274 32 85 C31.01386719 84.04867187 31.01386719 84.04867187 30.0078125 83.078125 C13.90960258 66.31224739 5.94450153 40.06757988 1.625 17.8125 C1.45726074 16.95205078 1.28952148 16.09160156 1.11669922 15.20507812 C0.18355408 10.05516388 -0.15691216 5.2324169 0 0 Z " fill="#B83A01" transform="translate(116,180)"/>
<path d="M0 0 C4.51364741 2.13804351 7.23938399 4.86768498 10 9 C11.05185203 15.90664607 11.21718505 24.08914492 7.47265625 30.22265625 C1.79248917 37.07803032 -4.06746804 41.90666683 -13 43 C-15.35162165 43.13755267 -17.70705966 43.21924343 -20.0625 43.25 C-21.84333984 43.28867188 -21.84333984 43.28867188 -23.66015625 43.328125 C-27.24681194 42.97575181 -29.10308956 42.08095646 -32 40 C-31.36924574 33.28109596 -30.26012863 26.82515632 -28.75 20.25 C-28.55792969 19.33089844 -28.36585938 18.41179687 -28.16796875 17.46484375 C-26.88940409 11.90831433 -25.60859275 8.68263317 -21 5 C-20.4121875 4.47792969 -19.824375 3.95585937 -19.21875 3.41796875 C-13.23748757 -0.8640714 -7.15376251 -1.00730945 0 0 Z " fill="#B83C03" transform="translate(317,181)"/>
<path d="M0 0 C0.33 0 0.66 0 1 0 C1 10.23 1 20.46 1 31 C-9.23 31 -19.46 31 -30 31 C-27 29 -27 29 -23.875 27.75 C-12.86367622 23.07076939 -6.72647859 16.42529832 -2.125 5.5 C-1.40522183 3.67112969 -0.69278926 1.83926351 0 0 Z " fill="#000000" transform="translate(399,369)"/>
<path d="M0 0 C2 3 2 3 3.25 6.125 C6.75727331 14.3784342 11.48396012 20.14589091 19 25 C19.845625 25.5775 20.69125 26.155 21.5625 26.75 C24.60990518 28.31277189 27.68934415 29.15610733 31 30 C31 30.33 31 30.66 31 31 C20.77 31 10.54 31 0 31 C0 20.77 0 10.54 0 0 Z " fill="#000000" transform="translate(0,369)"/>
<path d="M0 0 C10.23 0 20.46 0 31 0 C31 10.23 31 20.46 31 31 C29.09510101 28.14265151 27.71363108 25.35037981 26.25 22.25 C21.3340656 12.4417655 15.32273364 6.0896116 4.80078125 2.18359375 C3.21784955 1.72444723 1.61055987 1.35012171 0 1 C0 0.67 0 0.34 0 0 Z " fill="#000000" transform="translate(369,0)"/>
<path d="M0 0 C10.23 0 20.46 0 31 0 C28 2 28 2 24.875 3.25 C13.86367622 7.92923061 7.72647859 14.57470168 3.125 25.5 C2.40522183 27.32887031 1.69278926 29.16073649 1 31 C0.67 31 0.34 31 0 31 C0 20.77 0 10.54 0 0 Z " fill="#000000" transform="translate(0,0)"/>
</svg>
